<?xml version="1.0" encoding="utf-8"?>
<!-- Generator: Adobe Illustrator 22.1.0, SVG Export Plug-In . SVG Version: 6.00 Build 0)  -->
<svg version="1.1" id="Layer_1" xmlns="http://www.w3.org/2000/svg" xmlns:xlink="http://www.w3.org/1999/xlink" x="0px" y="0px"
	 viewBox="0 0 182.7 172.3" style="enable-background:new 0 0 182.7 172.3;" xml:space="preserve">
<style type="text/css">
	.st0{fill:#3B4B58;}
</style>
<path class="st0" d="M181,61.7l0-0.2c0-0.1,0-0.2,0-0.3l0.1,0l0.1-1.4l0-0.4c0.1-0.7,0.2-1.7-0.5-2.4c-0.4-0.5-0.6-1.2-0.8-1.9
	c-0.2-0.7-0.3-1.3-0.7-1.9c-0.4-0.7-0.6-1.5-0.7-2.3c-0.3-1.5-0.7-3.2-2.4-4.2l-0.4-0.2l-0.1-0.4c-0.5-2.1-2.1-3.5-3.3-4.5l-1.1-1
	l0.7-1.4l-1.1-0.4c-0.9-0.3-1.6-0.6-2-0.8l-0.7-0.4l0.9-1.4l-1.6-0.2c-1.2-0.2-1.7-0.6-1.8-1.6l0-0.3l-0.9-1.2l-0.5,0
	c-0.6,0-1,0-1.4-0.2l-0.8-0.3l0.5-0.8l-1.8-0.1c-0.2,0-0.5-0.1-0.7-0.2l-0.3-0.1c-0.3-0.1-0.5-0.2-0.8-0.2l-0.5-0.1l-0.1-0.5
	l-0.1-0.3c-0.2-0.3-0.7-0.9-2.1-0.4c-0.8,0.3-1.6-0.1-1.9-0.2c-1.2-0.7-2.6-0.9-3.7-1l-0.4-0.1c-0.3,0-0.5-0.1-0.7-0.1l-0.4-0.2
	c-1.4-1.2-3.1-1.3-4.7-1.3c-0.5,0-1,0-1.6-0.1l-0.3-0.1c-0.4-0.2-1.2-0.7-1.8,0l-0.6,0.6l-0.6-0.6c-0.1-0.2-0.3-0.4-0.4-0.6l-1.3-2
	l-0.5,2.1l-1.8-1.4l-0.6,0.5c-0.5,0.5-1.1,0.4-2,0.3c-0.8-0.1-1.2-0.1-1.6,0l-1,0.2l-0.5-3.1l-3.8,5.4l0.5-2.6l-2.1-1.3l-0.7,0
	l-0.8-0.9l-1.1,0.9l-0.9-0.8l-1,0.3l-0.2-0.2l-1,0.5l-0.9-0.6l-0.6,0.6l-1-0.4c-0.8-0.2-1.6,0.1-1.9,0.9l-0.3,0.6l-1-0.4l-0.2-0.3
	c-0.2-0.5-0.5-0.9-1-1c-0.5-0.1-1,0.1-1.5,0.6l-0.7,0.6l-1-1.5l-0.5,0.6l-0.7-0.2l-0.4,0.1l-0.1,0c-0.7-0.2-1.6-0.1-2.4,1.3
	l-0.1,0.2l-1.3,0.5l-2.1-3.2l0.1,3.3l-0.4,0.4l-0.6,0.1c-0.5,0-0.9,0-1.3,0.2l-0.2,0.1l-0.6,0c-0.4-0.1-0.9,0-1.3,0.2l-0.7,0.2
	l-1.3-1.5l-0.7,1.3c-0.5,0.9-1.2,1-2.4,1c-0.6,0-1.3,0-1.7,0.3c-1,0.2-1.6,0.5-2.1,1.6l-0.4,0.9l-0.5-0.5l-0.4,0c-0.3,0-0.6,0-0.9,0
	c-0.7-0.1-1.7-0.1-2.4,0.6l-0.3,0.3l-0.8-0.2L81,30.9l-0.3-0.1c-0.6-0.2-1.3-0.2-1.9,0c-0.7,0.2-1.1,0.3-1.6,0.1
	c-1.4-0.5-2.9-0.3-4.5-0.2C72,30.9,71.5,31,71,31l-0.3-0.1c-0.3-0.1-0.6-0.2-0.9-0.4c-1.4-0.6-2.7-1.1-4.2-0.5l-0.4,0.2l-0.3-0.3
	c-1.2-1.1-2.7-1.3-4.1-1.6c-0.8-0.1-1.6-0.2-2.2-0.5l-0.8-0.4L57,28.7l-0.6-1c-0.2-0.3-0.4-0.7-0.5-1.1c-0.5-1-0.9-2.1-1.9-2.9
	l-0.3-0.7l-0.5-0.4l0-0.4c0-1-0.3-1.7-1-2.2l-1.5-1l1.8-0.3c0.5-0.1,0.9-0.2,1.4-0.4l0.7-0.3l0.4,0c1.2,0.1,2.1-0.4,2.5-0.7
	c3.5-2.1,5.9-4,7.9-6.3c1.1-1.3,2.4-2.9,2.7-5.1c0.2-1.1-0.2-2.3-0.9-3.1c-0.7-0.7-1.7-1-2.7-0.9c-0.1,0-0.5,0-0.8-0.1
	c-0.3,0-0.5-0.1-0.8-0.1c-2.1-0.1-4.5-0.3-6.3,1.3l-0.5,0.3c-1.8,0.4-2.9,1.6-3.8,2.8c-0.3,0.4-0.6,0.7-0.9,1
	c-1.3,1.3-2.8,1.7-4.4,1.3c-0.8-0.2-2.2-0.3-3.1-0.3l-0.3-2l-1.4,1l-1.3-0.7l-1.6-0.4l0-0.1l-0.9-0.3c-2.8-0.8-5.1-0.9-6.8-0.3
	c-0.8,0.3-1.7,0.5-2.7,0.8c-2.7,0.8-5.5,1.6-8.2,3.1l-0.4,0.2l-1-0.6c-2.3-1.5-4.6-3.1-7.4-3.6c-2.8-0.5-6-0.9-9.1,0.8
	C1.7,6.5,0.9,7.5,0.7,8.7c-0.2,1,0.1,2,0.8,2.8c2.3,2.6,5.3,4.7,8.8,6.1c2.1,1,4.5,2.1,7.2,1.7l0.1,0l0.8,0.2l0.4-0.1l0.8,0l0.2,0.6
	c0.2,2.3,0.5,4.5,0.9,6.8c0.7,4.1,1.3,7.9,0.8,12c0,0.3-0.1,0.6-0.2,0.9c-0.2,0.7-0.3,1.4-0.3,2.1l0,0.2L21,42.6l0,0.5l-0.1,0.3
	c-0.5,1.1-0.4,2.3-0.3,3.3c0.1,0.5,0.1,1,0.1,1.4c-0.1,2.2-0.2,4.1-0.5,5.8c-0.1,0.8,0.1,1.5,0.4,2.1l0.1,0.3l-0.8,1.4l0.5,4.7
	l0,0.8c-0.1,0.8,0,1.4,0.1,2c0.1,0.8,0.2,1.6,0,2.2c-0.1,0.6-0.2,1.3,0.2,1.8l0.7,0.6l-0.1,0.5c-0.1,0.5-0.2,1.4,0.4,2.7
	c0.3,0.8,0.4,1.9,0.4,2.8c0,0.6,0.1,1.1,0.1,1.5c0.2,1.4,0.8,2.6,1.3,3.7c0.1,0.3,0.2,0.6,0.2,1.4l0.2,1.2l0.6-0.1l0.8,0.9L24.7,85
	l-0.5,0.3l0.1,0.6c0,0.8,0.1,1.7,0.9,2.4c0.9,0.8,1,1.8,1.1,2.7l0,0.1l-0.3,1.1l1,0.3l1.3,2.4l1-0.9l-0.1,1.8c0,0.4,0,0.9,0.4,1.3
	l0.4,0.4l1-0.3l0.4,0.3c0.9,0.5,1.8,1.2,2.8,1.9l1.5,1c0.8,0.5,1.2,0.8,1.4,1.5c0.2,1.1,0.8,1.9,1.6,2.2l0.5,0.2l1-0.7l0.5,0.5
	c0.4,0.6,0.7,1,0.9,1.5c0.3,1.1,0.8,1.8,1.5,2c0.1,0,0.5,0.2,1.1,0l0.5-0.1l0.5,0.6l0.3,0.1c1.2,0.4,1.8,0.7,2,1.2l0.1,0.3
	c0.2,2,0.4,4,0.3,5.9l-0.1,0.5c-0.3,0.5-0.3,1.1-0.2,1.9l0,0.1l0,0.1c-0.3,1.4-0.3,2.8-0.4,4.1l0,1.3c-0.1,2.5,0.5,4.9,0.9,7.1
	l0.3,0.9l0.4,13l-0.4,3.5c-0.2,3.4-0.6,7-2.9,10.2c-0.4,0.6-0.7,1.3-0.7,2.1l-0.1,0.4c-0.4,0.6-0.4,1.2-0.5,1.7
	c0,0.3-0.1,0.7-0.3,1.2c-0.5,1.1-1.1,2-1.9,2.7l-0.8,0.7l0.7,0.8c0.9,1,2.1,1.2,3.1,1.2l2.1-0.1l0.2,1.1c0.1,0.3,0.4,0.8,1.4,1
	c0.6,0.1,1.1,0.2,1.6,0.3c1.1,0.3,2.4,0.5,3.6,0.5c0.6,0,1.2-0.1,1.8-0.2c0.7-0.2,1.4-0.3,1.9-0.4c3.1-0.5,3.4-1.1,4.6-5.3l1.2-4.1
	l1-1l-0.1-0.6l0.5-1.3c1-1.4,1.2-2.9,0.5-4.8l-0.5-2.6c-0.5-5.3-0.4-10.5-0.3-15.1l1.2-4.9c0.8-3.2,1.7-6.4,2.4-9.6
	c0.2-0.7,0.5-1.4,0.9-2.1c0.3-0.6,0.7-1.3,0.9-2l0.2-0.6l0.6,0c1.5,0.1,1.8-0.4,2.1-0.7c0.2-0.4,0.2-0.8,0.1-1.3l-0.1-0.5l0.4-0.3
	c0.5-0.3,0.9-0.8,1-1.3l0.1-0.4l-0.5-1l0.6-0.4c1-0.6,1.7-1.5,1.9-2.8l0.1-0.4l0.4-0.2c0.5-0.2,0.8-0.5,1.1-1l0.3-0.6l0.8,0.2l0.2,0
	c0.4,0,1-0.1,1.5-0.7l0.5-0.6l0.5,0.5c0.7,0.7,1.5,1.3,2.6,1c0.3-0.1,0.7-0.1,1.2,0c0.9,0.1,1.7,0.1,2.5-0.4l0.4-0.2l0.4,0.2
	c1.7,1.1,3.8,1.2,5.5,0.2l0.3-0.2l0.4,0.2c2.2,0.9,4,1.3,6.1,0.5c0.8-0.3,2-0.5,3.1-0.5c0.5,0,1,0,1.5,0.1c1.2,0.2,2.6,0.3,3.8-0.7
	l0.2-0.2l0.3,0c0.3,0,0.7,0.1,1,0.2c1,0.3,2,0.4,3,0l0.3-0.1l0.6,0.2l0.7-0.1l1.2,0.9l1.4-1.7l0.6,1.4l1-0.7
	c0.2-0.1,0.4-0.3,0.5-0.5l0.8-0.9l0.4,0.1c1.4,0.4,2.6,0.3,3.7-0.2l0.7-0.2c0.5-0.2,1.1-0.3,1.7-0.4c1.5-0.3,3.1-0.5,4.3-1.5
	l0.3-0.2c0.4-0.1,0.7-0.4,1-0.5c0.6-0.4,0.7-0.4,0.9-0.5l0.2-0.1l0.2,0.1c0.1,0,0.2,0.1,0.3,0.2l1.7,1.5v-3.2l0.8,0.1
	c0.3,0,0.6,0.1,0.6,0l0.5,0.1c0.2,0.1,0.3,0.2,0.6,0.5c0.3,0.3,0.7,0.7,1.2,0.8l0.3,0.1l0.1,0.3c0.1,0.2,0.1,0.3,0.3,0.7
	c0.3,0.7,0.5,1.1,0.4,1.6l-0.3,0.9l1.7,0.8l0.4,0.6c0.9,0.7,1.6,0.5,2.1,0.3l0.4-0.2l0.3,0.3c0.6,0.6,1.3,0.9,1.9,1.2
	c0.3,0.2,0.5,0.3,0.5,0.3v0l4.8,6.2l0.1-0.1l1.3,2.9l0.2,0.8c0.2,0.7,0.5,1.6,0.9,2.5l0.1,0.2l0,0.2c-0.1,0.6,0.1,1.1,0.2,1.6
	c0.1,0.4,0.2,0.7,0.1,1.4l0.3,5.1l3.6,0.3l-3.5,1.6l-0.1,1.8c0,2-0.4,4-0.8,6c-0.4,2-0.8,4-0.8,6c0,2.5-0.6,4.9-1.7,7.8l-0.2,0.5
	c-0.6,1-1,2.1-1.4,3.2l-0.4,1.1l-0.5,0.7c-0.4,0.6-0.9,1.3-1.4,1.9c-0.6,0.7-0.8,1.3-0.6,1.8c0.1,0.4,0.5,0.8,1.6,0.9
	c1.3,0.1,2.7,0.1,4,0.1l1.4,0l0.4,1.1c-0.2,0.5-0.5,1-0.8,1.5l-0.6,0.9c-0.4,0.4-1.1,1.2-0.6,2.1c0.2,0.3,0.7,1.4,2.5,1.2l1.8-0.1
	c1.5-0.1,2.8-0.2,4-0.2c1.9,0,3.1-1,3.7-3c0.2-0.7,0.3-1.5,0.4-2.1l0.3-1.9l-0.1-0.5l0.4-0.2c0.7-0.5,1-1.4,1.1-2.1l0.1-0.5l0.5-0.1
	c0.4-0.1,0.6-0.2,0.9-0.5c0.5-0.4,0.7-1.1,0.7-2.1l0-0.2l0.1-0.2c0.2-0.4,0.4-0.8,0.4-1.4l0-0.2l0.1-0.2c0.4-0.9,0.6-1.8,0.6-3
	l0-6.2c0-3.9,0.1-8.7-0.1-13.2c-0.1-2.4,0.1-4.8,0.3-7.3c0.2-2.6,0.4-5.6,0.3-8.5c-0.2-2.9-1.2-5.5-3.2-8.3l-0.4-1.2l0-0.6
	c0.1-0.4,0.1-0.7,0-1.1l-0.1-0.5l0.4-0.3c0.4-0.3,0.6-0.7,0.6-0.8l0.2-0.3l0.9-0.2l0.2-1.1l0.6,0l0.5-0.1c0.8-0.5,0.7-1.5,0.7-1.9
	l0-0.4l0.2-0.2l-0.1-0.5c-0.1-0.8,0.2-1.6,0.6-2.5l1.9-3.5c0.7-1.2,0.5-2.4,0.3-3.4c-0.1-0.4-0.1-0.6-0.2-0.9l-0.1-0.5l1-0.7
	l-0.3-0.9l0.3-2.1l-0.1-0.4l0.4-0.3c0.5-0.4,0.9-0.8,1-1.4c0-0.4-0.1-0.8-0.3-1.2l-0.2-0.3l0.1-0.3c0.2-0.9,0.3-1.9,0.4-2.9
	c0.3-2.4,0.5-4.7,1.9-6.7c0.5-0.8,0.7-1.7,0.8-2.5c0.1-0.8,0.2-1.1,0.3-1.2c1.6-1.9,1.3-3.7,1.1-5.1C181,62.1,181,61.9,181,61.7z"/>
<path class="st0" d="M20.3,96L20.3,96l0.6,0.6l0.1,0.1l0.1,0.4l0,0.3l-0.7,0.8l1,1.3l0.1,0.1c0,0.1-0.1,0.3-0.1,0.3l-0.6,0.8
	l-0.3,0.5l0,0.6l-0.2,2.6l-0.1,1.4l1.2,0.6l0.3,0.2l0,0.1l1.4,0.7l0.6,0.3l0.9,0.4l0,0l1.9,0.7l0.1-0.2l0.1,0l0.1,0.1l0.6,0.7
	l0.1,0.1l0.4,1.2l0.5,1.2l0.1,0.4l0.1,2.7l0.1,3l0,0l0,0.1l-0.2,0.1l0.2,1.5l0.1,1.1l0,0l0.1,0.9l0.3,2.5v1.9l0.1,2.7l0,0.1l0,1.1
	l-0.5,3.6v1.1c0,0.3,0,0.6,0,1l-1.3,1.5l-0.2-0.1l-2.4-1.7l-0.7,2.9l-0.7,2.6c-0.1,0.5-0.2,0.9-0.2,1l-0.4,1.3l-0.3,1.8
	c-0.1,0.3-0.1,0.7-0.1,1.1l0,0.2l-0.2,0.2l0,0.8l0.1,1l0,0.9l0,0.2l0,0.1l0.1,0.7l0.3,1.7l0.3,1.7l0.1,0.7l0,0l-0.6,2.4l-0.1,0.4
	l0,0.1c-0.1,0.3-0.2,0.7-0.3,0.9l-0.9,2.9l-0.3,1.2l-0.4,1l-0.3,0.7l0.3,0.7l0.4,1l0.1,0.3l0.2,0.3l0.6,0.7l-1.1,0l-0.4-0.2
	l-0.1-0.6l-0.9,0.2l-1.1-0.5l-0.7,0.9l-0.2,0l-0.3,0.1l-0.1,0l0.5-0.6l1.6-2l-2.2-1.1c0,0,0,0,0,0l-0.5-1.8l-0.6-2l0.3-0.4l-0.6-1.2
	l-0.5-0.9l-0.4-2.2l-0.1-0.6l0.2-1.4c0-0.3,0-0.4,0.1-0.6l0.1-0.5l0-0.1l0.3-2.3c0-0.3,0-0.6,0-1l0.1-0.1l-0.1-1l-0.1-1.2
	c0-0.6-0.1-1-0.1-1.4l-0.3-1.3c-0.1-0.6-0.2-0.8-0.3-1.1l0-1.8l-0.4-5.2l-1.1,1.3l-0.7-2.1l-2.4,2.8l-0.4,0.5l-0.3-0.2l-0.1,0
	L9,137.2l0.2-1.1c0.2-0.9,0.1-1.6,0.1-2.2l-0.1-1.8l-0.4-5.1l-0.1,0.1l0-0.3l0.4-6.1c0-0.4,0-0.7,0.1-1l0.1-2.3l0-1l0.2-2.1l0.1-1.6
	l0.2-1c0.2-0.9,0.5-1.8,1-2.4l0.4-0.6c0.6-0.4,1-0.6,1.7-0.8l2-0.7l0.5-0.2l0,0c0.1-0.1,0.2-0.1,0.3-0.2l0.5-0.2l0.4-0.2l0.1,0
	l0.5-0.3l0,0l1.4-0.5l-0.5-1.8l-0.1-0.3l0,0l-0.2-0.8l-0.4-1.3l-0.8-1.5l0.5-2.8c0.1-0.4,0.3-0.7,0.5-0.8l0.5-0.2h1.6H20.3
	 M19.9,93.3l-3,1c-1,0.4-1.6,1.2-1.8,2.3l-0.7,3.6l0,0l1.1,2.1l0.3,0.9l0,0.1l0,0l0.2,0.4l0.2,0.6l-0.1,0l0,0.1l-0.4,0.3
	c-0.1,0.1-0.2,0.1-0.3,0.2l-0.5,0.3c-0.2,0.1-0.5,0.2-0.7,0.3l0,0l-0.2,0.1l-1.6,0.5c-0.7,0.2-1.5,0.5-2.4,1.2l-0.7,0.9
	c-0.7,1-1.2,2.1-1.4,3.3l-0.6,3.1l0.3-0.3l-0.3,3.4l0.1-0.1l-0.1,2.3c0,0.3,0,0.6,0,1l-0.4,6.3l0,0l0.1,2.9l0.1-0.1l0.2,1.9l0,0
	l0,0.8l0.1-0.2l0.1,1.8l0,0l0,0.4c0,0.3,0.1,0.7-0.1,1.3l-0.6,3.2l0.4-0.5l1.4,1l0.1,0.2l0.1-0.1l0.4,0.2c0.3,0.2,0.7,0.2,1,0.2
	c0.2,0,0.4,0,0.5-0.1l0.3-0.1l0.1-0.1l0,0l0.9-1.1l0.5,1.4l0,0l0.2,0.8l0.3-0.3l0,1.8l0.1,0.4c0.1,0.2,0.1,0.5,0.2,1l0.3,1.3
	c0,0.3,0.1,0.6,0.1,1.1l0.1,1.2l0,0l0,0.3c0,0.5,0,1,0,1.4l-0.3,2.2c0,0.2,0,0.3-0.1,0.4c-0.1,0.2-0.1,0.5-0.1,0.9l-0.4,2.9l0.4-0.4
	l0.4,2.5l0.6,1.2l-0.1,0.2l0.9,3.1l0,0l0.5,1.8c0.1,0.2,0.1,0.5,0,0.7l0.3,0.2l0.7,0.3l-3.2,3.9l2,0.2l2.9-0.1c0,0,0.2-0.1,0.3-0.1
	l0.7-0.1l0,0.2l0.4-0.5l0.4,0.2c0,0,0.1,0,0.2,0l0.8,0.3l0,0l1.7,0.1c0.3,0,0.7,0,1,0h0.4l1.5-1.8l-0.4-0.5
	c-0.2-0.3-0.4-0.5-0.6-0.7l-0.8-1l-0.4-1l0.4-1c0.1-0.5,0.3-0.9,0.4-1.4l0.8-2.9c0.1-0.2,0.1-0.5,0.2-0.8c0.1-0.2,0.1-0.4,0.1-0.7
	l1-3.6l-0.3,0.3l-0.4-2.5l-0.1,0.1l-0.3-1.7l0,0l-0.1-0.9l0-0.6l-0.1-1.1l0.1-0.1l0-0.3c0-0.2,0-0.5,0-0.7c0-0.3,0-0.6,0-0.8
	l0.3-1.8l0.3-1c0.1-0.3,0.1-0.6,0.2-1.1l0.7-2.5l0.7,0.5c0.1,0.1,0.2,0.2,0.4,0.3c0.1,0.1,0.2,0.2,0.3,0.2l0.5,0.1l3-3.6l-0.1-0.4
	c-0.1-0.3-0.1-0.7-0.1-1.2v-1.1l0.6-4.8l-0.2,0.2l0.1-3.1l-0.2,0.3v-1.9l-0.3-2.7l0,0l-0.2-2.1l0.1,0l0-0.7l0,0l-0.1-3.9v0l-0.1-3
	l-0.4-1.2l0-0.1l0,0l-0.2-0.8l-0.2,0.2l-0.4-1.2l-0.4-0.9L29,108l-0.9-1l0,0l-0.4-0.4l-0.1,0.1l-0.9-0.4l-1.4-0.3l0,0.1l-1.3-0.6
	l0,0l-0.1,0l0,0l-1.6-0.8l0.2-2.6l0.6-0.8c0.2-0.3,0.4-0.7,0.4-1c0.1-0.2,0.2-0.7,0-1.3l-0.4-0.5l0.1-0.1l0,0l0-1
	c0-0.3-0.1-0.6-0.2-0.9l-0.2-0.6l0,0l-0.1-0.2l-0.2-0.6l-0.2,0.3l-0.9-0.9l0.1-0.1l-1-0.3h-0.8L19.9,93.3L19.9,93.3z"/>
</svg>
