<?xml version="1.0" encoding="utf-8"?>
<!-- Generator: Adobe Illustrator 22.1.0, SVG Export Plug-In . SVG Version: 6.00 Build 0)  -->
<svg version="1.1" id="Layer_1" xmlns="http://www.w3.org/2000/svg" xmlns:xlink="http://www.w3.org/1999/xlink" x="0px" y="0px"
	 viewBox="0 0 31.1000004 29.2999992" style="enable-background:new 0 0 31.1000004 29.2999992;" xml:space="preserve">
<style type="text/css">
	.st0{fill:#3B4B58;}
	.st1{fill:none;stroke:#3B4B58;stroke-width:0.2;stroke-miterlimit:10;}
</style>
<path class="st0" d="M9.1431713,29.2380619c-0.2124777,0-0.4292555-0.0387096-0.6253881-0.0817223
	c-0.0911846-0.0189247-0.1840897-0.0369892-0.2787151-0.0533333c-0.169466-0.0283871-0.2210798-0.116991-0.2365637-0.1668854
	L7.9612131,28.74687l-0.3690391,0.0163441c-0.1840897,0.0025806-0.3785019-0.0197849-0.5402255-0.1995735L6.930656,28.4294453
	l0.1376371-0.1178513c0.135056-0.1152725,0.2451658-0.270113,0.3260274-0.4602242
	c0.0395708-0.0782814,0.0473127-0.1471004,0.0541949-0.2021542c0.0094624-0.0851631,0.022366-0.1969929,0.0851626-0.2967796
	l0.0215058-0.0679588c0.0025806-0.1316166,0.0430117-0.2554893,0.1161313-0.3604374
	c0.3888245-0.5548496,0.4671059-1.1742153,0.4937725-1.7600327l0.0696793-0.5978622l-0.064517-2.23316l-0.0430117-0.1600037
	c-0.0834427-0.3690395-0.1780682-0.7845306-0.1617241-1.2137871l0.006022-0.217638
	c0.0043011-0.2305412,0.0094624-0.4696865,0.0627971-0.713131l0.0051613-0.0232277L8.0360537,19.982832
	c-0.0189257-0.1230125-0.0060215-0.2262402,0.0395708-0.3191452l0.0223656-0.088604
	c0.0154839-0.322588-0.0146236-0.6795826-0.0464525-1.015934l-0.0137634-0.0498924
	c-0.0309687-0.0825825-0.1350565-0.1341972-0.3397918-0.2064571l-0.0516138-0.0180645l-0.0817218-0.1109695l-0.0800018,0.0189247
	c-0.0972061,0.0266685-0.1643043,0.0034409-0.1866703-0.0043011c-0.1204324-0.0447311-0.2021542-0.1574211-0.2546282-0.3475323
	c-0.022366-0.0791416-0.0713992-0.1479607-0.1471-0.2529087l-0.0920444-0.0843029L6.630435,17.6189156L6.5444121,17.584507
	c-0.1376371-0.0541954-0.233983-0.1892509-0.270113-0.3793621c-0.0240865-0.1273136-0.0963459-0.1780682-0.2331223-0.2649517
	l-0.2537684-0.1789284c-0.163444-0.1204319-0.3251677-0.2400036-0.4791489-0.3337688l-0.0722594-0.0593567l-0.1677451,0.0533352
	l-0.0757008-0.0757008c-0.0688181-0.0800018-0.0731196-0.1651649-0.0705385-0.2314034l0.0111828-0.3045206l-0.171186,0.1617231
	l-0.2150578-0.4086103l-0.1643043-0.0541945l0.0559149-0.1806488L4.437705,15.3083344
	c-0.0025806-0.1591425-0.0266671-0.3260279-0.1806483-0.4610844c-0.1376371-0.1204319-0.1445189-0.2838764-0.1496806-0.4154911
	l-0.0249467-0.1015081l0.080862-0.0447311l0.1384969-0.129035l-0.1384969-0.153121l-0.1066689,0.0154839l-0.0369897-0.1978531
	c-0.0008602-0.141078-0.010323-0.1875305-0.0309684-0.2382841c-0.0920448-0.1875305-0.192692-0.3931255-0.2219398-0.6365719
	c-0.0103228-0.0782804-0.0146239-0.1574221-0.0206456-0.2640905c-0.0060215-0.1591434-0.0129035-0.3372107-0.0722594-0.4782887
	c-0.0954857-0.2253809-0.0800016-0.3724804-0.0602162-0.4645252l0.0146239-0.092905l-0.1247334-0.0954857
	C3.4355354,11.4605188,3.45188,11.3469687,3.4733856,11.23944c0.0197854-0.1109705,0.0077422-0.2348433-0.0068817-0.3793621
	c-0.0103228-0.1032286-0.0215058-0.2202196-0.0094626-0.3492546l0.0017204-0.1350565L3.3727386,9.5645685l0.1290348-0.2391443
	L3.4776869,9.2738104c-0.048173-0.1032276-0.092905-0.2150574-0.0722594-0.3569956
	C3.4484389,8.6277771,3.4733856,8.300889,3.4837084,7.9180856C3.486289,7.8449659,3.4802675,7.7718463,3.4716651,7.6806622
	C3.456181,7.5163579,3.4363956,7.3107624,3.5181177,7.1163502l0.0154841-0.0438719L3.5275803,6.9924769l0.0318286-0.0713992
	L3.5559678,6.885808C3.5422041,6.7653756,3.5705917,6.6466637,3.6006999,6.5202098
	c0.0129035-0.052474,0.0249467-0.1049485,0.0292478-0.1539817c0.0739801-0.699368-0.0318284-1.3626065-0.1436586-2.0654159
	C3.4217718,3.9076867,3.3624158,3.5274644,3.3314474,3.1343386L3.299619,3.0233688L3.1611216,3.0173471L3.0931633,3.0293903
	l-0.134196-0.0335491l-0.022366,0.0034411c-0.4705465,0.059356-0.8825974-0.122153-1.2413139-0.300221
	C1.0939854,2.4504545,0.5812874,2.0951791,0.1830003,1.6461382C0.0625679,1.5110818,0.0118142,1.3347343,0.0427825,1.1618278
	c0.0344093-0.193552,0.1668849-0.3647381,0.3630177-0.4705465c0.5264617-0.278715,1.0838916-0.2245204,1.5578792-0.1316155
	c0.4868909,0.0954857,0.8903395,0.3621575,1.2800244,0.6202269l0.1651645,0.1075289l0.0645173-0.0361297
	c0.4499011-0.2486068,0.9342115-0.3896848,1.4030378-0.5264616C5.0630932,0.6697754,5.2076125,0.6276241,5.34869,0.5837523
	c0.2941995-0.0946254,0.6770024-0.0757003,1.1656137,0.0576355L6.670866,0.6843994L6.6691456,0.6938619l0.2683921,0.0602162
	l0.2184987,0.1255938L7.3969016,0.712787l0.0473127,0.349254c0.1582823,0.0034409,0.3965664,0.0146239,0.5342035,0.0533344
	C8.2536917,1.1867746,8.5074606,1.1136549,8.726819,0.8899947c0.0550547-0.0541946,0.104948-0.1144108,0.1557016-0.1754872
	c0.1660252-0.1944123,0.3492546-0.4103304,0.6563568-0.4748477l0.0911846-0.0490332
	c0.3079634-0.2632308,0.7182932-0.2365637,1.0770102-0.2202193c0.0421515,0.0025807,0.0800009,0.0086023,0.129035,0.0163444
	c0.0533342,0.0094625,0.1109695,0.0189251,0.1359158,0.0154842c0.1806488-0.0215058,0.3483944,0.0352695,0.4645252,0.1557019
	c0.1333361,0.137637,0.193552,0.3363505,0.1600037,0.5324833c-0.0593567,0.3690393-0.2718334,0.6451737-0.4662457,0.8748554
	c-0.3337698,0.3948463-0.7518425,0.7303364-1.3557253,1.0873325C9.6954403,2.7007821,9.5509214,2.779063,9.3427448,2.7687402
	L9.2808084,2.7661595l-0.1126909,0.048173C9.085536,2.8444407,9.0072546,2.860785,8.928113,2.8745487L8.6175699,2.9287434
	l0.2640905,0.1729064C8.9977922,3.1756296,9.0537071,3.2943416,9.057148,3.4724095l0.0017204,0.0688186l0.0903244,0.0722594
	l0.0541945,0.1144109c0.1617241,0.1376369,0.2434454,0.3217266,0.322587,0.4997942
	c0.028388,0.0653777,0.0576353,0.129035,0.0920448,0.1883907l0.1032276,0.1797886l0.1307554-0.2038751l0.1402178,0.0662379
	c0.1015072,0.048173,0.2331228,0.0679584,0.3733406,0.088604c0.2511873,0.0361295,0.5075359,0.0731196,0.7088308,0.2666717
	l0.0584955,0.0567751l0.0756998-0.0326886c0.246027-0.1015072,0.4696865-0.022366,0.7157125,0.0834427
	c0.0533352,0.0249467,0.1032286,0.0464525,0.1522617,0.064517l0.0567751,0.010323
	c0.0748396,0.0025806,0.165164-0.0051618,0.2890377-0.022366c0.265811-0.0326891,0.5187197-0.0627971,0.7673264,0.0266671
	c0.0774212,0.0283875,0.1522608,0.0077419,0.2718334-0.0240865c0.1135502-0.0352697,0.2253799-0.0369902,0.3294687-0.0034409
	l0.0567751,0.0172043l0.1152706-0.0722594l0.1445189,0.0412912l0.052474-0.0490332
	c0.1212931-0.1178517,0.2916183-0.1083889,0.4163523-0.0989265c0.052474,0.0034409,0.1023674,0.0051613,0.153121,0.0043011
	l0.0739803-0.0008602l0.0937653,0.092905l0.0756998-0.159143c0.0851631-0.1763473,0.1944132-0.2296815,0.3673191-0.2666717
	c0.0748405-0.0352693,0.1901112-0.0395708,0.2907581-0.0430117c0.2073164-0.0060215,0.322587-0.0163441,0.4120502-0.1746268
	l0.1247349-0.2227998l0.2184982,0.2615104l0.1118298-0.0387106c0.0679588-0.0249467,0.14538-0.0473127,0.2159195-0.0309682
	l0.100647-0.0034413l0.0318279-0.0240865c0.056776-0.042151,0.1281738-0.0490332,0.2167778-0.042151l0.1109695-0.0129037
	l0.0748405-0.0757003l-0.0137634-0.5686131l0.3621578,0.546247L17.816885,3.972204l0.0232258-0.0421512
	c0.1316166-0.241725,0.2847366-0.2443058,0.4043102-0.2184989l0.0189247,0.0060217l0.0670967-0.0146239L18.445715,3.737361
	l0.0911846-0.0989268l0.1797886,0.2615104l0.1161308-0.1023674c0.092905-0.0868835,0.1849499-0.1204324,0.2658119-0.1058085
	c0.0860214,0.0249467,0.1427975,0.0825822,0.1780663,0.1720462l0.0318298,0.0498934l0.1789284,0.0653777l0.0464516-0.1083891
	c0.0584965-0.1333358,0.1866703-0.1952727,0.3286095-0.1548417l0.1703243,0.070539l0.1083908-0.099787l0.1600018,0.099787
	l0.1737671-0.0868835l0.0275269,0.0387106l0.1651649-0.0507538l0.1548424,0.1350565l0.1823692-0.1557019l0.1384964,0.1625836
	l0.1273136,0.0043013l0.3621578,0.2271008l-0.0834427,0.441299l0.6580772-0.9342115l0.092905,0.5359242l0.1772079-0.0292478
	c0.056776-0.0120435,0.1350555-0.0077419,0.2709732,0.0068817c0.1600037,0.018065,0.2606506,0.0232263,0.3518353-0.0550547
	l0.1092491-0.092905l0.3019409,0.233983l0.080862-0.3612974l0.2279606,0.3423722
	c0.0232258,0.0344095,0.0481739,0.0713992,0.068819,0.0980663l0.0989265,0.100647l0.1101093-0.1101093
	c0.0920448-0.1118302,0.2417259-0.0292478,0.3045216,0.0068817l0.0481739,0.0172048
	c0.0920448,0.0215058,0.1875305,0.0232263,0.2718334,0.0249467c0.2692509,0.0068817,0.5634518,0.0137634,0.8068962,0.2219396
	l0.0610771,0.0292478c0.0412903,0.0077424,0.0843029,0.0137639,0.1281738,0.0189252l0.0610771,0.0086026
	c0.1978531,0.0275273,0.4240932,0.0584955,0.63657,0.1780677c0.0490341,0.0283875,0.1806488,0.0877438,0.3243084,0.0369902
	c0.2382832-0.0877438,0.3354893,0.0197849,0.3664589,0.0696788l0.0223656,0.0576353l0.0163441,0.0843029l0.0834427,0.0154839
	c0.0447311,0.0077419,0.0843029,0.0206456,0.1376362,0.0378504l0.044733,0.0146236
	c0.0387096,0.0146241,0.0834427,0.0292482,0.1255932,0.0309687l0.3114033,0.012043l-0.0929031,0.1419382l0.1298943,0.0593562
	c0.0627975,0.0283875,0.1333351,0.0309682,0.2331219,0.0318284l0.0851631,0.0008602l0.1557026,0.2004337l0.0043011,0.0524745
	c0.0129032,0.1849494,0.0894642,0.2529078,0.3028011,0.282156l0.2726936,0.0378499l-0.1505413,0.2357035l0.1118317,0.0653777
	c0.0765591,0.0438719,0.1944122,0.0903244,0.3509731,0.1384974l0.193552,0.060216l-0.1152706,0.246026l0.1926918,0.169466
	c0.2202187,0.1840892,0.4954929,0.4154916,0.5746346,0.7776489l0.0232258,0.0619369l0.0602169,0.034409
	c0.3053818,0.1746273,0.3664589,0.4645252,0.4197922,0.7208738c0.0292492,0.1393576,0.0576363,0.2778549,0.1247349,0.3896847
	c0.060215,0.0989275,0.088604,0.2073164,0.1187115,0.322587c0.0326881,0.1316156,0.0619373,0.2451658,0.1350555,0.3303289
	c0.1135521,0.1298952,0.1032276,0.2959194,0.0791416,0.4172125l0.0008602,0.0653772l-0.024086,0.2451658l-0.0146236-0.0017204
	c0.0008602,0.0206461,0.0025806,0.0395708,0.0051613,0.056776l0.0034409,0.0258064
	c0.0034409,0.0395708,0.0086021,0.0774212,0.0137634,0.1135511c0.0352688,0.2477465,0.0782814,0.5531282-0.1926918,0.8765755
	c-0.0077419,0.0163441-0.0197849,0.0713987-0.0447311,0.205595c-0.0223675,0.1307554-0.0516148,0.2959204-0.1410789,0.4249544
	c-0.2400036,0.3423719-0.2847366,0.7329178-0.3311882,1.1458282c-0.0180664,0.169466-0.0378513,0.3337698-0.0679588,0.4963541
	l-0.0086021,0.048173l0.0266666,0.0430117c0.0421524,0.0653772,0.0610771,0.1324749,0.0541954,0.1987133
	c-0.0137653,0.1144104-0.0920448,0.1849499-0.1746273,0.2451658l-0.0610771,0.052474l0.0103226,0.0679588l-0.0455914,0.358716
	l0.0533333,0.1548414l-0.1772079,0.1178522l0.008604,0.0774202c0.0043011,0.0430117,0.0129032,0.0860233,0.0258064,0.1488209
	c0.0352688,0.1720457,0.0748405,0.3673182-0.0464535,0.5772152l-0.3277473,0.6013021
	c-0.0610771,0.1453781-0.1187115,0.2830162-0.1032276,0.4223728l0.0094624,0.092905l-0.0378494,0.0318279l0.0034409,0.0662384
	c0.0043011,0.0670986,0.0137634,0.2434464-0.121294,0.3208656l-0.0800018,0.0232277l-0.0963459,0.0043011l-0.0395699,0.1866703
	l-0.1522617,0.0318279l-0.0266666,0.0550556c-0.0086021,0.0197849-0.0447311,0.0877438-0.1075287,0.136776l-0.064518,0.0516148
	l0.0215073,0.0808601c0.0189247,0.0679588,0.0223656,0.1281757,0.0077419,0.1883907l-0.0060215,0.1083908l0.0688171,0.1978531
	c0.346674,0.4739876,0.5221615,0.9195862,0.5514088,1.4185219c0.0301075,0.4972134-0.0094624,1.0107708-0.0447311,1.4641132
	c-0.0318298,0.4258137-0.0627975,0.8430271-0.0481739,1.2507763c0.0249462,0.7871113,0.0172043,1.6120739,0.0111828,2.2744522
	l-0.0060215,1.0675468c0,0.2073154-0.0318279,0.3742008-0.0997868,0.5230217l-0.0129032,0.0266666l0.0008602,0.0275269
	c0,0.0946255-0.0352688,0.1703262-0.0696793,0.2322636l-0.0189247,0.0326881l0.0008602,0.0335484
	c0.0025806,0.1677456-0.0335484,0.2804356-0.1144104,0.3561363c-0.0421524,0.0387115-0.0920448,0.0636578-0.1531219,0.0774212
	l-0.0843029,0.0180645l-0.0154839,0.0825825c-0.0206451,0.116991-0.0610752,0.2658119-0.1858101,0.3552761l-0.060215,0.0404301
	l0.012043,0.092905L28.4949379,27.92449c-0.0094624,0.1092491-0.0197849,0.241724-0.060215,0.366457
	c-0.1075287,0.3415127-0.3234482,0.5144196-0.6417332,0.51614c-0.2210789,0.0008602-0.4438801,0.0154839-0.6942062,0.0318279
	l-0.3165665,0.0223656c-0.3053818,0.0335503-0.4000072-0.1462383-0.430975-0.2012939
	c-0.0903244-0.1574211,0.0275269-0.2864571,0.0980663-0.363018l0.100647-0.1557007
	c0.0559139-0.0877438,0.1075287-0.169466,0.1393566-0.25807l-0.0696774-0.1858101L26.38307,27.6939468
	c-0.2279606-0.0043011-0.4550629-0.0086021-0.6847439-0.0197849c-0.1849499-0.0068817-0.2537689-0.0843029-0.2787151-0.1479607
	c-0.0369892-0.0868835-0.0043011-0.1875305,0.0997868-0.3028011c0.0894642-0.0997868,0.169466-0.2107563,0.246027-0.3208656
	l0.0911846-0.1238728l0.072258-0.1918335c0.0619373-0.1875286,0.1298962-0.3802204,0.2391453-0.5548477l0.0292473-0.0843029
	c0.2004337-0.5058174,0.2933388-0.9213085,0.2993603-1.3479824c0.0068817-0.3501148,0.0757008-0.6959286,0.1419392-1.0314178
	c0.0679569-0.3363514,0.1384964-0.6847439,0.1393566-1.0288372l0.0086021-0.3139839l0.597002-0.2830162l-0.6176472-0.0593567
	l-0.0576344-0.8688335c0.0051613-0.1161308-0.0094643-0.1806488-0.0240879-0.2434464
	c-0.0215054-0.0868835-0.0421505-0.177206-0.0301075-0.2744122l0.0043011-0.0395718L26.64114,20.4232712
	c-0.076561-0.1488209-0.1204319-0.2959194-0.1557026-0.4223747l-0.0387096-0.1376362l-0.2185001-0.4911919l-0.024086,0.0197849
	l-0.8301239-1.0675468v0.0008602c-0.0060215,0-0.0421505-0.0189247-0.0929031-0.044733
	c-0.0920448-0.0464516-0.2193604-0.1101093-0.3191471-0.2081757l-0.0584946-0.056776l-0.076561,0.0309696
	c-0.088604,0.0369892-0.2202206,0.0679569-0.3681793-0.056776l-0.064518-0.0963459l-0.3002205-0.141077l0.0473137-0.1471004
	c0.0275269-0.0877438-0.004303-0.1643047-0.0602169-0.2812958c-0.0258064-0.0559139-0.0387115-0.0834427-0.0490341-0.11269
	l-0.0197849-0.0516148l-0.0533333-0.0189247c-0.0903244-0.0335484-0.1582832-0.100647-0.2030163-0.1453781
	c-0.0498924-0.0507545-0.0739784-0.0731201-0.1015072-0.0868835l-0.0877419-0.0172043
	c-0.0077438,0.0034409-0.0541954,0.0017204-0.1032295-0.0060215l-0.1341953-0.0129051v0.5496883l-0.2916183-0.2503262
	c-0.0266666-0.0232277-0.0464535-0.03269-0.0576363-0.0369911l-0.0404301-0.0154839l-0.0387096,0.0094624
	c-0.0249481,0.0068817-0.0490341,0.0197849-0.1462402,0.0817223c-0.0473137,0.0301075-0.1075287,0.068819-0.1729069,0.092905
	l-0.0593548,0.0387096c-0.2012959,0.1686058-0.4748478,0.2150593-0.7389393,0.2597904
	c-0.1023674,0.0172043-0.1978531,0.0344086-0.2881775,0.0610771l-0.1273155,0.0395699
	c-0.1969929,0.0825825-0.4043083,0.0937653-0.6417313,0.0258064l-0.0696793-0.0206451l-0.1324749,0.1591434
	c-0.0197868,0.0232258-0.0473137,0.0533333-0.0825825,0.0782814l-0.1754875,0.124733l-0.1092491-0.2451668l-0.2477474,0.2890377
	l-0.2012939-0.1557007l-0.1273136,0.0232258l-0.0963459-0.0378494l-0.0498943,0.0215054
	c-0.1660252,0.0782814-0.3406506,0.048172-0.5178585,0.0051613c-0.0593567-0.012043-0.1187134-0.0249462-0.1720467-0.0301075
	l-0.052475-0.0060215L18.6504498,17.96731c-0.2107563,0.1772079-0.4481812,0.1479588-0.6589375,0.1195717
	c-0.0911846-0.0129032-0.1763477-0.0197849-0.2649517-0.0206451c-0.2004337,0-0.3931255,0.0283871-0.5376434,0.0782814
	c-0.3552761,0.124733-0.6761436,0.0567741-1.0494843-0.092905l-0.0636559-0.0266666l-0.0541954,0.0301075
	c-0.2830153,0.1643047-0.6537752,0.1513996-0.9436731-0.0395718l-0.0653782-0.0421505l-0.0653772,0.0404301
	c-0.1341963,0.0817223-0.2752743,0.0791416-0.4292555,0.064518c-0.0868835-0.0034409-0.153121-0.0086021-0.2107573,0.0060215
	c-0.193552,0.0507545-0.3363504-0.0498924-0.4542017-0.1643047l-0.0937653-0.0920448l-0.0860233,0.0963459
	c-0.0903244,0.1015091-0.1883907,0.1083908-0.2597895,0.1126919l-0.0318289,0.0025806l-0.1333361-0.040432l-0.0455923,0.0946255
	c-0.0455923,0.0903244-0.104948,0.1471004-0.1840897,0.1780682l-0.0688181,0.0258064l-0.012043,0.0713997
	c-0.0378504,0.2236614-0.1470995,0.3862438-0.3251677,0.4851704l-0.1066685,0.0619373l0.088603,0.1651649l-0.0129032,0.0627956
	c-0.0163441,0.076561-0.0800009,0.1591434-0.1694651,0.2185001l-0.0696793,0.048172l0.0223665,0.0843029
	c0.0249462,0.0946255,0.0206451,0.1677456-0.0129042,0.2288208c-0.0369892,0.0516148-0.104948,0.1376381-0.3544149,0.1221542
	l-0.0963459-0.0043011l-0.0266676,0.0980663c-0.0344086,0.1264534-0.0911846,0.2391434-0.1462393,0.3483925
	c-0.064517,0.1238747-0.1255932,0.2425861-0.1539812,0.3647385c-0.1273146,0.5531292-0.2709732,1.1028175-0.4154921,1.6516457
	l-0.2141972,0.8499069c-0.0215063,0.790554-0.0344095,1.6817532,0.0498934,2.5944595l0.0843029,0.4542007
	c0.1066685,0.3208675,0.0791407,0.5909805-0.0920448,0.8275433l-0.0791416,0.2228012l0.0249472,0.0946236l-0.1686058,0.1772079
	l-0.1995735,0.7045307c-0.2073164,0.7286148-0.2649517,0.8266811-0.7896929,0.9144249
	c-0.0903244,0.0154858-0.1944122,0.03269-0.322587,0.0610771C9.3522072,29.2285995,9.2481194,29.2380619,9.1431713,29.2380619z
	 M8.3242311,28.758913c0.0989265,0.0189266,0.1823692,0.0352707,0.2675314,0.052475
	c0.2537689,0.0559139,0.5436668,0.1066685,0.7828112,0.0498924c0.1359167-0.0301075,0.246026-0.048172,0.3406515-0.0645161
	c0.3372107-0.0559158,0.3372107-0.0559158,0.5101175-0.6632385l0.2726927-0.9625988l0.0602169,0.0129032l0.1316147-0.3449535
	c0.1135511-0.1470985,0.1273146-0.306242,0.048173-0.5496883l-0.0920439-0.4920521
	c-0.088604-0.9471149-0.0757008-1.8520775-0.0490341-2.6916637l0.2202196-0.8886185
	c0.1436586-0.5471077,0.2873173-1.0933552,0.4129114-1.6430435c0.0387106-0.1668835,0.1152706-0.3122635,0.1754866-0.4292545
	c0.0576363-0.11269,0.1040888-0.2047348,0.1281748-0.2967796l0.100647-0.3724804l0.3647385,0.0180645l-0.0593557-0.2305412
	l0.2563486-0.1789284L12.03613,18.78195l0.4025879-0.233984c0.0593557-0.0326881,0.1264544-0.0877438,0.1514006-0.2365627
	l0.0447321-0.2718334l0.25807-0.0972061l0.1694651-0.3664589l0.3363504,0.100647l0.3432331-0.3595772l0.3569956,0.350975
	c0.0843029,0.0817223,0.1015072,0.0774212,0.1255941,0.0739803c0.1075287-0.0258083,0.205595-0.0215073,0.2916183-0.016346
	c0.124733,0.0103245,0.2030144,0.0137653,0.2468863-0.012043l0.2563486-0.1582813l0.2520485,0.1660233
	c0.1789274,0.1178532,0.4060287,0.1273155,0.5754948,0.028389l0.2081766-0.116993l0.2184982,0.0937653
	c0.363018,0.14538,0.5754948,0.1677456,0.7974339,0.0851631c0.2064552-0.0705376,0.4731274-0.1066685,0.733778-0.0963459
	c0.0774212,0.0017204,0.1557026,0.0111828,0.2339821,0.0223675c0.2176399,0.0301075,0.3062439,0.0249462,0.3879662-0.0421524
	l0.1565609-0.1264534l0.1969929,0.0197849c0.0636578,0.0068817,0.1367779,0.0215054,0.2124767,0.0378494
	c0.1488209,0.0335503,0.2322636,0.0455933,0.2959213,0.0172062l0.1866703-0.0825825l0.141077,0.0550537l0.1823692-0.0318279
	l0.0602169,0.0455914l0.3922653-0.4576416l0.136776,0.3053818l0.1651649-0.1660252l0.2709732,0.0774212
	c0.1591415,0.0464516,0.2838764,0.0404301,0.4240932-0.0180645l0.1445198-0.0455933
	c0.1066685-0.0318279,0.2159176-0.0524731,0.3286076-0.0705395c0.2417259-0.0412903,0.4481812-0.0765591,0.5995808-0.2012939
	l0.1101112-0.0679569c0.0576344-0.0240879,0.0980663-0.0498943,0.1333351-0.0722599
	c0.1109695-0.0705395,0.1677456-0.104948,0.2503281-0.1264534l0.148819-0.0361309l0.0129032,0.0051613v-0.2726936
	l0.5247421,0.0516148c0.0430107,0.0051613,0.080862,0.0077419,0.1161308,0.0086021l0.1591434,0.036129
	c0.1135502,0.052475,0.1660233,0.1032276,0.2271004,0.1643047c0.0197849,0.0206451,0.0576363,0.0584965,0.0748405,0.0653782
	l0.205595,0.0731201l0.0782814,0.2064552c0.0077419,0.0206451,0.0163441,0.0387096,0.024086,0.0559139
	c0.0550556,0.1152725,0.1204319,0.2511883,0.116991,0.4103317l0.1505413,0.0713978l0.0447311,0.0894642l0.2855968-0.1152706
	l0.2236614,0.2202187c0.060215,0.0584965,0.1557007,0.1058102,0.2322617,0.1445198
	c0.0602169,0.0309677,0.1023674,0.0533333,0.1393585,0.0748405l0.116991,0.0989265l0.5660324,0.745821l0.0980663-0.0825825
	l0.4499016,1.0133514l-0.0068817,0.0154858l0.0206451,0.0739784c0.0309677,0.1101093,0.0688171,0.2365646,0.1298943,0.3561363
	l0.0670986,0.1298943l-0.0180645,0.1462402c-0.0043011,0.0369892,0.0077419,0.0894642,0.0223656,0.1445179
	c0.0189247,0.0843029,0.0430107,0.1866703,0.0335484,0.3311901l0.0378513,0.5479679l1.5940075,0.1539803l-1.5587387,0.7354984
	l-0.0017204,0.092905c-0.0008602,0.3759212-0.0748405,0.7406597-0.1462402,1.0942154
	c-0.0636559,0.3191452-0.1298943,0.6494732-0.1350555,0.9677601c-0.0077419,0.4705467-0.1075287,0.9247475-0.3243065,1.4701347
	l-0.0430126,0.11269c-0.1040878,0.1729069-0.1617241,0.3363514-0.2227993,0.5195808l-0.0972061,0.2408638l-0.1101093,0.1591434
	c-0.0516148,0.0731201-0.104948,0.1488209-0.1625843,0.2210789c0.1668854,0.0060215,0.3337688,0.0094624,0.499794,0.012043
	l0.4765682,0.0068817l0.1918316,0.5144196l-0.0292473,0.1178513c-0.0498943,0.1427994-0.1187115,0.2520485-0.1797886,0.3483944
	l-0.1212921,0.1823692c0.0111828-0.0008602,0.0189247-0.0008602,0.0292473-0.0008602L27.0574913,28.4888
	c0.2769947-0.0180645,0.5058155-0.0335484,0.733778-0.0344086c0.1341953,0,0.2374229-0.0464516,0.3079624-0.270113
	c0.0275269-0.0877438,0.036129-0.1883907,0.0455933-0.2959194l0.0404301-0.2924786l-0.0326881-0.2623711l0.2357025-0.1574211l0,0
	c0,0,0.0215054-0.0215073,0.040432-0.1298962l0.0593548-0.3148441l0.3010807-0.0636578
	c-0.0025806-0.0094624,0.0017204-0.0369892,0.0008602-0.0851631l-0.0025806-0.1316147l0.0670986-0.1152706
	c0.0206451-0.0369911,0.0232258-0.0516148,0.0232258-0.0559158l-0.0008602-0.1075287l0.0464535-0.0980663
	c0.0447311-0.0989265,0.0662365-0.2184982,0.0662365-0.375061l0.0060234-1.0692673
	c0.0060215-0.6597977,0.0137634-1.4804592-0.0111847-2.2598286c-0.0146236-0.4275341,0.0172062-0.8533497,0.0481739-1.2653999
	c0.036129-0.4662457,0.0748405-0.9677601,0.0464516-1.4408875c-0.0258064-0.427536-0.1806469-0.8163605-0.5023746-1.2610989
	l-0.0653782-0.1324768l-0.0567741-0.2116165l0.0146236-0.193552l-0.0834427-0.3483944l0.2468872-0.1952724l0.1118298-0.2253799
	l0.0954857-0.0197849l0.048172-0.2296829l0.233984-0.0103226l-0.012043-0.2184982l0.0344086-0.0301094
	c0.0034409-0.1875305,0.0722599-0.3518333,0.1333351-0.4980736l0.0344105-0.0825825l0.3131237-0.5574293
	c0.052475-0.0911846,0.0369911-0.181509,0.0060215-0.3329096c-0.0146236-0.0757008-0.0249462-0.129035-0.0309677-0.1806488
	l-0.0309677-0.2907581l0.1427975-0.1015072l0.0438728-0.3492537l-0.03269-0.2141981l0.221941-0.1875305
	c0.0111828-0.0086021,0.0197849-0.0154839,0.0275269-0.0215054l-0.0877438-0.1187124l0.0344086-0.1832294
	c0.028389-0.153121,0.0464535-0.3088226,0.0627975-0.4662447c0.0507526-0.4438801,0.1015072-0.8980818,0.3931255-1.3135738
	c0.044733-0.064517,0.0662384-0.1866703,0.0834427-0.2847366c0.0283871-0.153121,0.0473118-0.2529078,0.1066685-0.3492537
	c0.1832294-0.22194,0.1608639-0.3957071,0.1298943-0.6142054l-0.0292473-0.0051613l0.0068817-0.1608639
	c-0.0068817-0.0731192-0.0146236-0.1961327,0.0086021-0.3217258l0.0309696-0.1677456l0.0043011,0.0008602
	c0.0077419-0.0498934,0.0068817-0.0817223-0.0034409-0.092905c-0.1281757-0.1496801-0.1711864-0.3165655-0.2081776-0.4645252
	c-0.0266666-0.1015072-0.0473118-0.1823692-0.0808601-0.2374239c-0.0989265-0.1643038-0.1367779-0.3483934-0.1677456-0.4963531
	c-0.0533352-0.2529078-0.0903244-0.399148-0.2503281-0.4903316l-0.1720467-0.0980668l-0.0748386-0.2064557
	c-0.0593567-0.2675319-0.2658119-0.4404383-0.4645252-0.6073232L28.9001083,6.74473l0.0576344-0.123013
	c-0.0937653-0.0352693-0.1703262-0.070539-0.2331219-0.1058083l-0.4309769-0.252048l0.0713997-0.11097
	c-0.1987133-0.0877433-0.3139839-0.2434454-0.3449535-0.4671054c-0.0954857-0.0043011-0.1866703-0.018065-0.2812958-0.0619369
	l-0.5023746-0.229682l0.0111828-0.0172043c-0.0387096-0.0129037-0.0593548-0.0197854-0.0817223-0.0232263l-0.3208656-0.0593562
	l-0.0318279-0.1686053c-0.2649517,0.0713992-0.4817295-0.0283875-0.5677528-0.0748401
	c-0.1557026-0.0868835-0.3380718-0.1126904-0.5144196-0.1367769l-0.0593548-0.0086021
	c-0.0490341-0.0060215-0.0989265-0.0129037-0.1471004-0.022366l-0.1264534-0.0240865l-0.0963459-0.0825825
	c-0.1488209-0.1273141-0.3578568-0.1324754-0.5789356-0.1376367c-0.0989265-0.0017204-0.2262421-0.0043011-0.3785019-0.0421515
	l-0.0782814-0.0292478l-0.2804356,0.2804351l-0.2159176-0.2210793l-0.0361309,0.1582828L23.2062359,4.376513
	c-0.1754875,0.0877433-0.3544159,0.0696788-0.4886112,0.0559149c-0.0972061-0.0094624-0.1479607-0.0129037-0.1703262-0.0129037
	l-0.068819,0.0163445l-0.4671059,0.058496l-0.0051613-0.028388l-1.108839,1.5707827l0.3449535-1.8056254l-0.0782814-0.048173
	L20.965332,4.1640358l-0.1445179,0.1247334l-0.2374249-0.2073159l-0.2236595,0.0696788V4.1502719l-0.0774212,0.0387106
	l-0.0997868-0.0619369l-0.0774212,0.0722594l-0.2787151-0.1178517L19.6801472,4.424686l-0.6064644-0.2210798L19.0151882,4.1064
	l-0.394846,0.3475337l-0.197855-0.3561358L18.316679,4.0659695l-0.0696774,0.0154839l-0.0739803-0.0240865
	c-0.0034409,0.0077424-0.0129032,0.0215058-0.024086,0.0430117l-0.0877438,0.1574225l-0.6116257,0.2227998l-0.0412903-0.0662379
	l-0.0602169,0.0602164l-0.2976398,0.0404305l-0.0283871-0.0008602l-0.0843029,0.0627971l-0.1763477,0.0068817L16.6744976,4.582108
	c-0.0025806-0.0060215-0.0206451,0.0008602-0.0584965,0.0137639l-0.3449516,0.1195722l-0.0739803-0.088604
	c-0.1780682,0.1531215-0.3914051,0.159143-0.5453863,0.163444c-0.0817223,0.0025806-0.1591434,0.0051613-0.205596,0.0258069
	c-0.129034,0.030108-0.1298943,0.0318284-0.1548414,0.0851631l-0.2924786,0.606463l-0.3397913-0.3406515
	c-0.0352697-0.0008602-0.0722599-0.0025806-0.1075287-0.0051613c-0.0335493-0.0008602-0.129035-0.0086026-0.1505413,0.0043011
	l-0.1987133,0.1866703L14.0163822,5.299541l-0.1187115,0.0739803l-0.2116175-0.0645175
	c-0.0223656-0.0077419-0.0619364-0.0146241-0.124733,0.0051613c-0.1298952,0.03613-0.3019419,0.0860233-0.4886112,0.018065
	c-0.1711864-0.0610766-0.3621578-0.0378504-0.5651722-0.0146241c-0.1763477,0.0240865-0.3002214,0.0378504-0.4301157,0.0258069
	l-0.0980663-0.0206456c-0.0825825-0.0283875-0.141078-0.0533342-0.1995745-0.0800014
	c-0.2107563-0.0911846-0.3260269-0.1212926-0.435277-0.0800014l-0.2873173,0.1221528l-0.2271013-0.2167783
	c-0.1195717-0.1152711-0.2993603-0.141078-0.4894714-0.1686053c-0.1273146-0.0189252-0.2434454-0.03613-0.3518343-0.0679584
	L9.7040424,5.2754545L9.3126373,4.5924311c-0.040431-0.070539-0.0748405-0.1462393-0.1092501-0.2228003
	C9.1354294,4.2156496,9.0760736,4.0823135,8.9762859,3.9971507L8.8653164,3.9042459l-0.024086-0.0860233L8.7113352,3.7149949
	l-0.0068817-0.233983c-0.0008602-0.0645173-0.012044-0.0825822-0.012044-0.0834424l-1.015933-0.6632385L8.867897,2.5270152
	c0.0584955-0.0103228,0.1161318-0.0197854,0.1703262-0.0395706l0.177207-0.0774209l0.1548424,0.006882
	C9.4588766,2.4341102,9.5199528,2.39626,9.5939322,2.3506677c0.5694733-0.3372107,0.9600191-0.6494747,1.2679815-1.0124924
	c0.1703262-0.2030146,0.3415117-0.4240941,0.387104-0.7053898c0.0146246-0.0868834-0.0103226-0.1720463-0.0662374-0.2296818
	c-0.0412912-0.0421513-0.0920448-0.059356-0.1539812-0.0541946c-0.0739803,0.0180649-0.169466,0-0.2382841-0.0120432
	c-0.0464525-0.0077421-0.0713997-0.0129035-0.0972061-0.0137637c-0.3303289-0.0206456-0.6374321-0.0361297-0.8739958,0.1608633
	L9.6515684,0.5708488c-0.229682,0.0533344-0.3595772,0.2064555-0.4972143,0.3690393
	C9.0967188,1.0095669,9.0382233,1.0766649,8.9771461,1.1386015C8.6717644,1.4491452,8.2855206,1.5592548,7.886373,1.4551668
	c-0.1221528-0.0335491-0.4275351-0.0361297-0.59442-0.0421513L7.1362514,1.4138757L7.1250682,1.3304332L6.4867764,1.7751728
	l0.2382841-0.7122716L6.7147379,1.0611807L6.1418238,1.6082879l0.123013-0.6658191
	c-0.3432322-0.0765606-0.6133451-0.0860232-0.810338-0.0232263C5.3108401,0.9639746,5.1646008,1.0078464,5.0183616,1.050858
	L4.9753499,1.0629013C4.5245886,1.1945167,4.0592031,1.329573,3.6445718,1.5592548L3.3951046,1.6986123l-0.3432324-0.2228
	c-0.363878-0.241725-0.7372184-0.4886115-1.1552908-0.5703334C1.48281,0.8246171,1.0010804,0.7747237,0.5718249,1.0026851
	c-0.0997868,0.0533344-0.1660247,0.134196-0.1815088,0.2210795c-0.0120432,0.0662378,0.0086023,0.1350563,0.055915,0.1883906
	c0.3630177,0.40861,0.8318439,0.7337775,1.3944352,0.9669001c0.3380711,0.1668851,0.6813033,0.3182857,1.0477619,0.270973
	L2.9796128,2.637985l0.1324756,0.0335491l0.0318286-0.0051613l0.4258144,0.0163443l0.1075289,0.3914053
	c0.0352695,0.412051,0.0937653,0.7836709,0.1557021,1.163033C3.9499538,4.9717932,4.0592031,5.658258,3.9809222,6.4014978
	C3.9749005,6.4634342,3.9594164,6.533113,3.9430721,6.6019316C3.9189856,6.7051597,3.8992002,6.7868814,3.9069424,6.8505387
	l0.0103228,0.1290345L3.8854365,7.0544133l0.0043011,0.0645175L3.8475864,7.2428041
	c-0.051614,0.123013-0.0387104,0.2666717-0.0249467,0.4043088C3.8329625,7.7563624,3.838984,7.8432455,3.8364034,7.9284086
	c-0.011183,0.3965664-0.0378501,0.7372179-0.081722,1.04002c-0.006882,0.0421515,0.006882,0.080862,0.0421512,0.1557016
	l0.1006472,0.2116175l-0.163444,0.3010807l0.0765607,0.7243147l-0.0017204,0.169466
	c-0.0094626,0.1083889-0.0008605,0.2030144,0.0086021,0.2950592c0.0154843,0.1557016,0.0309684,0.3165646,0.0025806,0.4800091
	c-0.0034409,0.0154839-0.0060215,0.0292482-0.0077419,0.0395708l0.1987133,0.1316156L3.9594164,11.803751
	c-0.0086024,0.0421515-0.0240865,0.1144114,0.0395706,0.2632313c0.0834424,0.2004337,0.0920451,0.4215136,0.099787,0.5987215
	c0.0043011,0.0937643,0.0086021,0.1660242,0.0172048,0.2365627c0.0232263,0.1858101,0.1058083,0.3561363,0.1944122,0.5367851
	c0.0378499,0.0911846,0.052474,0.1711855,0.0584955,0.265811l0.4266748,0.4739876l-0.3320494,0.3088236
	c0.0043011,0.0567751,0.0120435,0.0825825,0.0258069,0.0946255c0.2486072,0.2184982,0.2933393,0.4920521,0.300221,0.689045
	l0.0249467,0.0077419l0.052474,0.1075296l0.4481807-0.4266748l-0.0361295,1.0253954l0.034409-0.0103226l0.1987133,0.1668854
	c0.141078,0.0834427,0.3131242,0.2081757,0.4851708,0.3354893l0.2331228,0.1651649
	c0.1419377,0.0903244,0.3372107,0.2141972,0.3896847,0.4972134c0.0043011,0.0206451,0.0094624,0.0387115,0.0146241,0.0533352
	l0.205595-0.1367779l0.3423724,0.3260288c0.0868831,0.1204319,0.1617231,0.2253799,0.1995735,0.3638783
	c0.0266671,0.0954857,0.0507536,0.1195717,0.0507536,0.1204319l0.2778549-0.0903244l0.1557016,0.2124767
	c0.1866703,0.0670986,0.4163523,0.1668854,0.5075369,0.4189339l0.024086,0.0937653
	c0.0378504,0.3741989,0.0679588,0.7475395,0.0447321,1.1320629l-0.0395708,0.1557026
	c-0.0172043,0.040432-0.0301075,0.0679588-0.0197849,0.1376381l0.0154839,0.0886021l-0.0206451,0.0903244
	c-0.0455923,0.2081776-0.0498934,0.4283962-0.0541945,0.6425934l-0.0060215,0.2228012
	c-0.0154848,0.3845234,0.0696783,0.7587223,0.1522608,1.1208801l0.0473127,0.193552l0.0679579,2.2959576l-0.0696783,0.6107655
	c-0.0266676,0.5961399-0.1144114,1.3041115-0.5557098,1.9337997c-0.0335488,0.0473137-0.0516138,0.1032276-0.052474,0.1634445
	l-0.0017204,0.1376362l-0.0765605,0.116993c-0.018065,0.0275269-0.0249467,0.0877419-0.0301085,0.141077
	c-0.0094624,0.076561-0.0240865,0.1926918-0.0868831,0.3157043c-0.0627971,0.1496811-0.1453791,0.2855968-0.2443056,0.4051704
	c0.0318284,0.0051613,0.0688181,0.0077419,0.1135502,0.0043011l0.6615181-0.028389L8.3242311,28.758913z"/>
<path class="st0" d="M3.4054172,16.180027l0.0057847,0.0014877l0.1003397,0.1003399l0.0207026,0.0145969l0.0245924,0.0724869
	l-0.0025337,0.0560322l-0.119379,0.144968l0.1779537,0.2232304l0.0106621,0.0133762
	c-0.0075824,0.0237541-0.0167477,0.0452271-0.017885,0.0487957L3.504848,16.9956474l-0.0564477,0.078558l-0.0084209,0.0963669
	l-0.0384767,0.4403858l-0.0208237,0.2384186l0.2139473,0.107254l0.0582252,0.0291862l-0.0016732,0.0094852l0.2447088,0.1143723
	l0.1105733,0.0516815l0.151557,0.074091l0.0028615-0.0046215l0.3207035,0.1254425l0.0144892-0.0394478l0.0136628,0.0069256
	l0.0239172,0.0091381l0.1108704,0.1272068l0.0087957,0.0197639l0.0684605,0.2006111l0.0853362,0.2027378l0.0247922,0.0744991
	l0.0190444,0.4676514l0.0192795,0.5204964l-0.0045161,0.0050697l0.0007944,0.0158749l-0.0260048,0.0112362l0.0271306,0.2575874
	l0.0206742,0.1963291l-0.0020347,0.0022564l0.0151515,0.1547699l0.0439558,0.4315758v0.3208332l0.0189471,0.4670067
	l-0.0003262,0.0089493l-0.001966,0.189312l-0.0776119,0.6241779v0.195467
	c-0.0002151,0.0570698-0.0004034,0.1074696,0.0050435,0.1684761L4.670927,23.2566395l-0.0319161-0.0228844l-0.4175701-0.2994289
	L4.092586,23.4317398l-0.1135104,0.4383945c-0.0217226,0.0902195-0.0335255,0.1480236-0.0338078,0.1640911l-0.0696602,0.2275639
	l-0.046792,0.3045731c-0.0098658,0.0581379-0.0122616,0.1176338-0.011786,0.1958542l-0.0010889,0.0309658l-0.0269058,0.0326519
	L3.79566,24.9618778l0.0093195,0.1666431l0.0001764,0.1603909l0.0044172,0.0298519l-0.0073943,0.0130825l0.0224266,0.1250114
	l0.0531344,0.2963104l0.056056,0.2865448l0.0192058,0.1238384l0.0016046,0.0067348l-0.1101987,0.416563l-0.0146222,0.0755081
	l-0.0028546,0.0186405c-0.0198374,0.0583305-0.0361164,0.1166248-0.0450833,0.1521797l-0.1464896,0.5068722l-0.0587361,0.207674
	L3.512264,27.7265244l-0.0439725,0.1221638l0.0458057,0.1214867l0.0663991,0.1760902l0.0199263,0.0528164l0.0354292,0.0439548
	l0.1019726,0.1259575l-0.1919997-0.0084572l-0.0754986-0.0286808L3.4594824,28.228117l-0.1561689,0.0342789L3.1219828,28.176796
	l-0.1278822,0.1534805L2.957576,28.338295l-0.0598919,0.0182552l-0.0122313,0.0007133l0.0873454-0.106741l0.2791839-0.3411446
	l-0.3827863-0.1914024c-0.0004184-0.0017967-0.0008435-0.0035954-0.0012753-0.0054016l-0.0863087-0.301878L2.6844039,27.063139
	l0.0529697-0.0641651L2.6348228,26.79389L2.556987,26.6382313L2.492579,26.2631245l-0.0177741-0.103508l0.035691-0.2486477
	c0.0033116-0.0430584,0.0029774-0.0661716,0.0099885-0.0953808l0.0149045-0.0872421l0.0019388-0.0135307l0.0556529-0.3929405
	c0.0041096-0.052866,0.0064316-0.1056099,0.0075305-0.1671257l0.0177338-0.0163269l-0.0137603-0.1711712l-0.0165946-0.2061787
	c-0.008157-0.1059704-0.0132849-0.1641598-0.0244713-0.2344551l-0.0437441-0.2258034
	c-0.018604-0.0976028-0.0279591-0.1435127-0.0486417-0.1856709l-0.0051093-0.3136806l-0.0637765-0.8894386l-0.186487,0.2233047
	l-0.1207097-0.3611279L1.6903812,23.255125l-0.0760751,0.0904732l-0.0554227-0.0262756l-0.0140779-0.0054379L1.4685978,23.260849
	l0.0363246-0.1812668c0.0354273-0.1623268,0.0251567-0.2684021,0.0144811-0.3845024L1.5044284,22.387867l-0.068091-0.8719654
	l-0.0162116,0.0193996L1.4186405,21.480011l0.0711657-1.0561657c0.0041045-0.0605869,0.008068-0.1212082,0.0090727-0.1770039
	l0.012596-0.3916721l0.0027925-0.1663818l0.0359147-0.3690338l0.0154488-0.270895l0.0334567-0.1750412
	c0.0301619-0.1581516,0.090536-0.301487,0.1666093-0.4091663l0.0683918-0.0970192
	c0.0955395-0.077219,0.1767743-0.1016884,0.2889102-0.1354809l0.348686-0.1136513l0.0809526-0.0399723l0.0016448-0.002058
	c0.0193231-0.0095787,0.0379241-0.019083,0.0554175-0.0280685l0.0851109-0.0422459l0.0688841-0.0349712l0.0118918-0.0066071
	l0.082468-0.0569401l0.0039921-0.0029202l0.2481332-0.0838985l-0.0805476-0.3162346l-0.0162387-0.0479622l0.0048037-0.0083427
	l-0.0396211-0.1422977L2.907701,17.0782394l-0.1314976-0.2563705l0.0865204-0.4774723
	c0.0177574-0.0760536,0.0496111-0.1156063,0.086643-0.1338215l0.0905108-0.0305481H3.31826H3.4054172 M3.3533363,15.7023439
	l-0.5166514,0.1743784c-0.1672258,0.0745926-0.2738309,0.2023029-0.317081,0.3875866l-0.1130867,0.6215649l0.0051093-0.0027332
	l0.1825521,0.3559113l0.0449605,0.1614456l-0.0078394,0.0136204l0.0010214,0.0057964l0.0282753,0.0633335l0.0275896,0.1083126
	l-0.0221443,0.0074883l0.0017087,0.01124l-0.0633531,0.0463161c-0.0214589,0.0119267-0.0357635,0.0197678-0.056535,0.0292988
	l-0.0943415,0.0466499c-0.0398512,0.0204353-0.0810583,0.0415611-0.123287,0.0599537l-0.0040877,0.0051079L2.289361,17.8142986
	l-0.2677,0.080389c-0.1277092,0.0384769-0.2598588,0.0783272-0.4090434,0.198885L1.491708,18.2430935
	c-0.1171561,0.1641598-0.1989017,0.3559093-0.2387344,0.5646954l-0.1025171,0.536417l0.0490298-0.0585785l-0.0561821,0.5772915
	l0.0159966-0.0190792l-0.012596,0.391674c-0.0010232,0.0551777-0.0047749,0.1103573-0.0085099,0.1655178l-0.0732356,1.0868073
	l0.0013744-0.001358l0.0132833,0.494524l0.016331-0.019413l0.0265679,0.3341179l-0.0023791,0.004755l0.0081756,0.1335068
	l0.0241873-0.0289459l0.0149751,0.3072128l-0.0003344,0.0006714l0.0054437,0.0619946
	c0.0057964,0.0599365,0.0115744,0.1219311-0.0119089,0.2295589l-0.1086479,0.5418606l0.0773066-0.0922985l0.236357,0.1644955
	l0.0224786,0.0367851l0.0160152-0.019413l0.0739059,0.0361156c0.0596719,0.0295105,0.1153432,0.0421505,0.169558,0.0421505
	c0.0308741,0,0.0612713-0.0040989,0.091675-0.0115147l0.0442717-0.0108871l0.0194157-0.0231667l-0.0003529-0.0010223
	l0.1573602-0.1856194L2.0383449,23.71628l-0.0064652,0.0074883l0.033386,0.141346l0.0483594-0.057909l0.0051093,0.3136806
	l0.0197501,0.0763016c0.010217,0.0408726,0.0183926,0.0820789,0.0350764,0.1696053l0.0439372,0.2268238
	c0.0078397,0.0504036,0.0119274,0.1014957,0.0190797,0.1944809l0.0166838,0.2074108l-0.0044389,0.0040874l0.0003529,0.0463161
	c0.0003343,0.0827675-0.0010233,0.165535-0.0074885,0.2486362l-0.0531344,0.3702164
	c-0.0047748,0.0333672-0.0075052,0.0541382-0.0119274,0.0739059c-0.0095313,0.0394974-0.0122616,0.0779915-0.0180395,0.1529179
	l-0.0735717,0.5037212l0.0602868-0.0725479l0.0732188,0.4264126l0.1011612,0.2023029l-0.024189,0.0292969l0.1467886,0.5248299
	l0.0003345-0.0003357l0.0865204,0.3041477c0.0098658,0.0418797,0.0105529,0.0813923,0.0027301,0.1188679l0.0497172,0.0398312
	L2.7001131,28.02738l-0.5507245,0.6729908l0.3375165,0.0292988l0.4972374-0.0252132
	c0.0085282-0.0074863,0.0269208-0.0170155,0.0510912-0.0224762l0.1147788-0.0251961L3.15343,28.6894836l0.0647089-0.0776596
	l0.0728843,0.0344086c0.0085099,0.0010223,0.0173709,0.0034008,0.0262153,0.0064659l0.1355486,0.0493832l-0.0054436,0.0068169
	l0.2935791,0.0129318c0.0561991,0.0023956,0.1123996,0.0023956,0.1696219,0.0023956h0.0664008l0.2581668-0.3095932
	l-0.0752616-0.0906067c-0.0360999-0.0435867-0.0722141-0.0868359-0.1096697-0.128397l-0.1399891-0.1736927L3.843791,27.8458481
	l0.0643578-0.1787968c0.0231657-0.07868,0.0463331-0.1570091,0.0674391-0.2353535l0.1447458-0.5006542
	c0.0098839-0.0384789,0.0235014-0.0875263,0.0401855-0.1365719c0.01124-0.0323639,0.0163493-0.064024,0.0245233-0.1175098
	l0.1658702-0.6270084l-0.0497169,0.0596008l-0.0667706-0.4305019L4.2245593,25.690979l-0.0531344-0.2963104l0.0044222-0.007822
	l-0.0221276-0.1495209l0.0033989-0.096384l-0.0095296-0.1961708l0.0159965-0.0194149l0.0034175-0.0456486
	c0.0023775-0.038475,0.0023775-0.0779915,0.0023775-0.1174908c-0.0003343-0.0555305,0-0.0967388,0.0068178-0.1369228
	l0.0476742-0.309927l0.0561991-0.1713142c0.0105529-0.054491,0.0214586-0.1079617,0.0415597-0.1914158l0.1120486-0.4325447
	l0.1239738,0.0888977c0.0214591,0.0156631,0.0412073,0.0340557,0.0602703,0.0528011
	c0.0190797,0.0187263,0.0374722,0.0364323,0.0493994,0.0384769L4.747694,23.714571l0.5136037-0.6154327l-0.0136361-0.0667515
	c-0.0115743-0.0575562-0.0112214-0.1171589-0.0108871-0.2077656v-0.1937923l0.1062522-0.8327293L5.316124,21.8301296
	l0.0194139-0.5343761L5.2977314,21.341383v-0.3208332l-0.045629-0.4659119l0.0030646-0.0034008l-0.0371194-0.3525085
	l0.0125961-0.0054455l-0.0057964-0.115799l0.0027318-0.0030651L5.203054,19.4123154v0.0003529l-0.0211225-0.5190487
	L5.112113,18.6838131l0.0071526-0.0091972L5.116888,18.6688194l-0.0303197-0.1392822L5.055244,18.5666561L4.9867816,18.366045
	l-0.0647092-0.1488323l-0.0105529,0.012949l-0.1549644-0.1777973l0.0006704-0.0016918l-0.0684438-0.0647087L4.6690149,18.009449
	l-0.149168-0.0755978l-0.2367096-0.0592651l-0.0085101,0.0231686l-0.2295556-0.1072922l0.0010214-0.0057964l-0.0180578-0.0085087
	l-0.0016904,0.0027294l-0.2738309-0.1372566l0.0384769-0.4403858l0.1008084-0.1403065
	c0.0340714-0.0562,0.0606396-0.1185303,0.0769706-0.1798401c0.0095482-0.0309887,0.0337203-0.1287308-0.0067995-0.21525
	l-0.0735717-0.0922985l0.0143063-0.0173721l-0.0013576-0.0057774l0.0074885-0.165535
	c0.0010214-0.0555134-0.013972-0.1011429-0.0296326-0.1495018l-0.0337205-0.1117134l0.004086-0.0044403l-0.0146389-0.0313244
	l-0.0320117-0.1059151l-0.0422287,0.0507374l-0.148499-0.1484985l0.0098658-0.0122614l-0.1719825-0.0442715H3.31826
	L3.3533363,15.7023439L3.3533363,15.7023439z"/>
</svg>
